REM DIRINDEX 1\2,1\3,1\4,1\5
REM DIRNAME cjc046,folder01,folder02,folder03,folder04
TITLE ""
FILE "160.mp3" MP3
  TRACK 01 AUDIO
    TITLE "0:"
    INDEX 01 00:00:00
  TRACK 02 AUDIO
    TITLE "2:cjc046_4633"
    INDEX 01 00:00:13
  TRACK 03 AUDIO
    TITLE "0:"
    INDEX 01 00:01:28
  TRACK 04 AUDIO
    TITLE "3:cjc046_4634"
    INDEX 01 00:01:48
  TRACK 05 AUDIO
    TITLE "0:"
    INDEX 01 00:03:45
  TRACK 06 AUDIO
    TITLE "4:cjc046_4635"
    INDEX 01 00:03:63
  TRACK 07 AUDIO
    TITLE "0:"
    INDEX 01 00:05:03
  TRACK 08 AUDIO
    TITLE "2:cjc046_4636"
    INDEX 01 00:06:12
  TRACK 09 AUDIO
    TITLE "0:"
    INDEX 01 00:07:25
  TRACK 10 AUDIO
    TITLE "3:cjc046_4637"
    INDEX 01 00:07:41
  TRACK 11 AUDIO
    TITLE "0:"
    INDEX 01 00:08:58
  TRACK 12 AUDIO
    TITLE "4:cjc046_4638"
    INDEX 01 00:09:02
  TRACK 13 AUDIO
    TITLE "0:"
    INDEX 01 00:10:16
  TRACK 14 AUDIO
    TITLE "2:cjc046_4639"
    INDEX 01 00:11:21
  TRACK 15 AUDIO
    TITLE "0:"
    INDEX 01 00:12:40
  TRACK 16 AUDIO
    TITLE "3:cjc046_4640"
    INDEX 01 00:12:56
  TRACK 17 AUDIO
    TITLE "0:"
    INDEX 01 00:13:61
  TRACK 18 AUDIO
    TITLE "4:cjc046_4641"
    INDEX 01 00:14:04
  TRACK 19 AUDIO
    TITLE "0:"
    INDEX 01 00:15:21
  TRACK 20 AUDIO
    TITLE "2:cjc046_4642"
    INDEX 01 00:16:32
  TRACK 21 AUDIO
    TITLE "0:"
    INDEX 01 00:17:61
  TRACK 22 AUDIO
    TITLE "3:cjc046_4643"
    INDEX 01 00:17:74
  TRACK 23 AUDIO
    TITLE "0:"
    INDEX 01 00:19:26
  TRACK 24 AUDIO
    TITLE "4:cjc046_4644"
    INDEX 01 00:19:44
  TRACK 25 AUDIO
    TITLE "0:"
    INDEX 01 00:20:73
  TRACK 26 AUDIO
    TITLE "2:cjc046_4645"
    INDEX 01 00:22:07
  TRACK 27 AUDIO
    TITLE "0:"
    INDEX 01 00:23:34
  TRACK 28 AUDIO
    TITLE "3:cjc046_4646"
    INDEX 01 00:23:55
  TRACK 29 AUDIO
    TITLE "0:"
    INDEX 01 00:25:07
  TRACK 30 AUDIO
    TITLE "4:cjc046_4647"
    INDEX 01 00:25:27
  TRACK 31 AUDIO
    TITLE "0:"
    INDEX 01 00:26:54
  TRACK 32 AUDIO
    TITLE "2:cjc046_4648"
    INDEX 01 00:27:63
  TRACK 33 AUDIO
    TITLE "0:"
    INDEX 01 00:29:01
  TRACK 34 AUDIO
    TITLE "3:cjc046_4649"
    INDEX 01 00:29:25
  TRACK 35 AUDIO
    TITLE "0:"
    INDEX 01 00:30:54
  TRACK 36 AUDIO
    TITLE "4:cjc046_4650"
    INDEX 01 00:30:59
  TRACK 37 AUDIO
    TITLE "0:"
    INDEX 01 00:31:73
  TRACK 38 AUDIO
    TITLE "2:cjc046_4651"
    INDEX 01 00:33:07
  TRACK 39 AUDIO
    TITLE "0:"
    INDEX 01 00:34:10
  TRACK 40 AUDIO
    TITLE "3:cjc046_4652"
    INDEX 01 00:34:36
  TRACK 41 AUDIO
    TITLE "0:"
    INDEX 01 00:35:63
  TRACK 42 AUDIO
    TITLE "4:cjc046_4653"
    INDEX 01 00:36:05
  TRACK 43 AUDIO
    TITLE "0:"
    INDEX 01 00:37:12
  TRACK 44 AUDIO
    TITLE "2:cjc046_4654"
    INDEX 01 00:38:24
  TRACK 45 AUDIO
    TITLE "0:"
    INDEX 01 00:39:31
  TRACK 46 AUDIO
    TITLE "3:cjc046_4655"
    INDEX 01 00:39:52
  TRACK 47 AUDIO
    TITLE "0:"
    INDEX 01 00:41:14
  TRACK 48 AUDIO
    TITLE "4:cjc046_4656"
    INDEX 01 00:41:22
  TRACK 49 AUDIO
    TITLE "0:"
    INDEX 01 00:42:29
  TRACK 50 AUDIO
    TITLE "2:cjc046_4657"
    INDEX 01 00:43:37
  TRACK 51 AUDIO
    TITLE "0:"
    INDEX 01 00:44:40
  TRACK 52 AUDIO
    TITLE "3:cjc046_4658"
    INDEX 01 00:44:56
  TRACK 53 AUDIO
    TITLE "0:"
    INDEX 01 00:46:33
  TRACK 54 AUDIO
    TITLE "4:cjc046_4659"
    INDEX 01 00:46:53
  TRACK 55 AUDIO
    TITLE "0:"
    INDEX 01 00:47:54
  TRACK 56 AUDIO
    TITLE "2:cjc046_4660"
    INDEX 01 00:48:63
  TRACK 57 AUDIO
    TITLE "0:"
    INDEX 01 00:49:74
  TRACK 58 AUDIO
    TITLE "3:cjc046_4661"
    INDEX 01 00:50:17
  TRACK 59 AUDIO
    TITLE "0:"
    INDEX 01 00:51:48
  TRACK 60 AUDIO
    TITLE "4:cjc046_4662"
    INDEX 01 00:51:67
  TRACK 61 AUDIO
    TITLE "0:"
    INDEX 01 00:53:04
  TRACK 62 AUDIO
    TITLE "2:cjc046_4663"
    INDEX 01 00:54:11
  TRACK 63 AUDIO
    TITLE "0:"
    INDEX 01 00:55:28
  TRACK 64 AUDIO
    TITLE "3:cjc046_4664"
    INDEX 01 00:55:48
  TRACK 65 AUDIO
    TITLE "0:"
    INDEX 01 00:56:41
  TRACK 66 AUDIO
    TITLE "4:cjc046_4665"
    INDEX 01 00:56:55
  TRACK 67 AUDIO
    TITLE "0:"
    INDEX 01 00:57:72
  TRACK 68 AUDIO
    TITLE "2:cjc046_4666"
    INDEX 01 00:59:10
  TRACK 69 AUDIO
    TITLE "0:"
    INDEX 01 01:00:15
  TRACK 70 AUDIO
    TITLE "3:cjc046_4667"
    INDEX 01 01:00:27
  TRACK 71 AUDIO
    TITLE "0:"
    INDEX 01 01:01:44
  TRACK 72 AUDIO
    TITLE "4:cjc046_4668"
    INDEX 01 01:01:58
  TRACK 73 AUDIO
    TITLE "0:"
    INDEX 01 01:02:63
  TRACK 74 AUDIO
    TITLE "2:cjc046_4669"
    INDEX 01 01:03:71
  TRACK 75 AUDIO
    TITLE "0:"
    INDEX 01 01:05:13
  TRACK 76 AUDIO
    TITLE "3:cjc046_4670"
    INDEX 01 01:05:34
  TRACK 77 AUDIO
    TITLE "0:"
    INDEX 01 01:07:33
  TRACK 78 AUDIO
    TITLE "4:cjc046_4671"
    INDEX 01 01:07:43
  TRACK 79 AUDIO
    TITLE "0:"
    INDEX 01 01:08:58
  TRACK 80 AUDIO
    TITLE "2:cjc046_4672"
    INDEX 01 01:09:65
  TRACK 81 AUDIO
    TITLE "0:"
    INDEX 01 01:11:02
  TRACK 82 AUDIO
    TITLE "3:cjc046_4673"
    INDEX 01 01:11:25
  TRACK 83 AUDIO
    TITLE "0:"
    INDEX 01 01:12:42
  TRACK 84 AUDIO
    TITLE "4:cjc046_4674"
    INDEX 01 01:12:46
  TRACK 85 AUDIO
    TITLE "0:"
    INDEX 01 01:13:59
  TRACK 86 AUDIO
    TITLE "2:cjc046_4675"
    INDEX 01 01:14:70
  TRACK 87 AUDIO
    TITLE "0:"
    INDEX 01 01:16:18
  TRACK 88 AUDIO
    TITLE "3:cjc046_4676"
    INDEX 01 01:16:40
  TRACK 89 AUDIO
    TITLE "0:"
    INDEX 01 01:18:31
  TRACK 90 AUDIO
    TITLE "4:cjc046_4677"
    INDEX 01 01:18:51
  TRACK 91 AUDIO
    TITLE "0:"
    INDEX 01 01:19:74
  TRACK 92 AUDIO
    TITLE "2:cjc046_4678"
    INDEX 01 01:21:08
  TRACK 93 AUDIO
    TITLE "0:"
    INDEX 01 01:22:19
  TRACK 94 AUDIO
    TITLE "3:cjc046_4679"
    INDEX 01 01:22:41
  TRACK 95 AUDIO
    TITLE "0:"
    INDEX 01 01:23:63
  TRACK 96 AUDIO
    TITLE "4:cjc046_4680"
    INDEX 01 01:24:08
  TRACK 97 AUDIO
    TITLE "0:"
    INDEX 01 01:25:19
